<?xml version="1.0" encoding="UTF-8"?>
<svg width="270px" height="240px" viewBox="0 0 270 240" version="1.1" xmlns="http://www.w3.org/2000/svg" xmlns:xlink="http://www.w3.org/1999/xlink">
    <title>编组 3</title>
    <g id="首页" stroke="none" stroke-width="1" fill="none" fill-rule="evenodd">
        <g id="画板" transform="translate(-570.000000, -200.000000)">
            <g id="编组-3" transform="translate(570.000000, 200.000000)">
                <g id="编组" transform="translate(0.000000, 0.000000)">
                    <polygon id="三角形备份-26" fill="#42D393" transform="translate(33.750000, 30.000000) scale(1, -1) translate(-33.750000, -30.000000) " points="33.75 0 67.5 60 0 60"></polygon>
                    <path d="M135,0 L118.063,30.111 L101,0 L135,0 Z" id="形状结合" fill="#42D393"></path>
                    <polygon id="三角形备份-28" fill="#48CB9D" points="67.5 0 101.25 60 33.75 60"></polygon>
                    <path d="M135,0 L151.937,30.111 L135,60 L118.063,30.111 L135,0 Z" id="形状结合" fill="#48CB9D"></path>
                    <path d="M101.227,60.042 L113,81 L117,120 L67.5,120 L101.227,60.042 Z" id="形状结合" fill="#58A9C8"></path>
                    <path d="M168.773,60.042 L202.5,120 L153,120 L157,81 L168.773,60.042 Z" id="形状结合" fill="#58A9C8"></path>
                    <path d="M141.923,132.307 L168.75,180 L101.25,180 L128.077,132.307 L135,140 L141.923,132.307 Z" id="形状结合" fill="#608DEC"></path>
                    <polygon id="三角形备份-30" fill="#48CB9D" points="202.5 0 236.25 60 168.75 60"></polygon>
                    <path d="M169,-5.45696821e-12 L151.937,30.111 L135,0 L169,-5.45696821e-12 Z" id="形状结合" fill="#42D393"></path>
                    <polygon id="三角形备份-39" fill="#42D393" transform="translate(236.250000, 30.000000) scale(1, -1) translate(-236.250000, -30.000000) " points="236.25 0 270 60 202.5 60"></polygon>
                    <polygon id="三角形备份-40" fill="#50BDAF" transform="translate(202.500000, 90.000000) scale(1, -1) translate(-202.500000, -90.000000) " points="202.5 60 236.25 120 168.75 120"></polygon>
                    <polygon id="三角形备份-41" fill="#50BDAF" transform="translate(67.500000, 90.000000) scale(1, -1) translate(-67.500000, -90.000000) " points="67.5 60 101.25 120 33.75 120"></polygon>
                    <path d="" id="形状结合" fill="#50BDAF"></path>
                    <path d="M117,120 L128.077,132.308 L101.25,180 L67.5,120 L117,120 Z" id="形状结合" fill="#5E9BDF"></path>
                    <path d="M202.5,120 L168.75,180 L141.924,132.308 L153,120 L202.5,120 Z" id="形状结合" fill="#5E9BDF"></path>
                    <polygon id="三角形备份-45" fill="#6380FB" transform="translate(135.000000, 210.000000) scale(1, -1) translate(-135.000000, -210.000000) " points="135 180 168.75 240 101.25 240"></polygon>
                </g>
            </g>
        </g>
    </g>
</svg>